<svg width="16" height="16" viewBox="0 0 16 16" fill="none" xmlns="http://www.w3.org/2000/svg">
<path d="M3.33333 2V1.25C2.91911 1.25 2.58333 1.58579 2.58333 2H3.33333ZM12.6667 14V14.75C13.0809 14.75 13.4167 14.4142 13.4167 14H12.6667ZM3.33333 14H2.58333C2.58333 14.4142 2.91911 14.75 3.33333 14.75V14ZM9.33333 2L9.86366 1.46967C9.72301 1.32902 9.53224 1.25 9.33333 1.25V2ZM12.6667 5.33333H13.4167C13.4167 5.13442 13.3376 4.94366 13.197 4.803L12.6667 5.33333ZM5.33333 10.5833C4.91911 10.5833 4.58333 10.9191 4.58333 11.3333C4.58333 11.7475 4.91911 12.0833 5.33333 12.0833V10.5833ZM10.6667 12.0833C11.0809 12.0833 11.4167 11.7475 11.4167 11.3333C11.4167 10.9191 11.0809 10.5833 10.6667 10.5833V12.0833ZM5.33333 7.91667C4.91911 7.91667 4.58333 8.25245 4.58333 8.66667C4.58333 9.08088 4.91911 9.41667 5.33333 9.41667V7.91667ZM9.33333 9.41667C9.74754 9.41667 10.0833 9.08088 10.0833 8.66667C10.0833 8.25245 9.74754 7.91667 9.33333 7.91667V9.41667ZM12.6667 13.25H3.33333V14.75H12.6667V13.25ZM4.08333 14V2H2.58333V14H4.08333ZM3.33333 2.75H9.33333V1.25H3.33333V2.75ZM11.9167 5.33333V14H13.4167V5.33333H11.9167ZM8.803 2.53033L12.1363 5.86366L13.197 4.803L9.86366 1.46967L8.803 2.53033ZM7.91666 2V4.66667H9.41666V2H7.91666ZM10 6.75H12.6667V5.25H10V6.75ZM7.91666 4.66667C7.91666 5.81726 8.8494 6.75 10 6.75V5.25C9.67783 5.25 9.41666 4.98883 9.41666 4.66667H7.91666ZM5.33333 12.0833H10.6667V10.5833H5.33333V12.0833ZM5.33333 9.41667H9.33333V7.91667H5.33333V9.41667Z" fill="#FECC16"/>
</svg>
