<svg width="14" height="14" viewBox="0 0 14 14" fill="none" xmlns="http://www.w3.org/2000/svg">
<path d="M6.54688 0C2.96094 0 0.046875 2.91406 0.046875 6.5C0.046875 7.79688 0.464844 8.98438 1.11719 10L0 13.1211L3.47656 12.1406C4.39844 12.6445 5.42188 13 6.54688 13C10.1328 13 13.0469 10.0859 13.0469 6.5C13.0469 2.91406 10.1328 0 6.54688 0ZM6.54688 1C9.58984 1 12.0469 3.45703 12.0469 6.5C12.0469 9.54297 9.58984 12 6.54688 12C5.50391 12 4.53906 11.707 3.70312 11.2031L3.51953 11.0898L1.59375 11.6289L2.21875 9.89453L2.06641 9.68359C1.42578 8.78125 1.04688 7.6875 1.04688 6.5C1.04688 3.45703 3.50391 1 6.54688 1ZM4.10938 3C3.99609 3 3.80859 3.04688 3.64844 3.23438C3.49219 3.41797 3.04688 3.86719 3.04688 4.78125C3.04688 5.69141 3.66406 6.57422 3.75 6.69922C3.83594 6.82422 4.96484 8.69531 6.69141 9.5C7.10156 9.69141 7.42188 9.80469 7.67188 9.89062C8.08594 10.0312 8.46094 10.0117 8.75781 9.96484C9.08984 9.91016 9.77734 9.51562 9.92188 9.08203C10.0625 8.64844 10.0664 8.27734 10.0195 8.19922C9.98047 8.12109 9.86328 8.07422 9.69141 7.98438C9.51953 7.89062 8.67188 7.44141 8.51562 7.38281C8.35938 7.31641 8.24219 7.28906 8.125 7.47266C8.01172 7.66016 7.68359 8.07812 7.58203 8.19922C7.48047 8.32422 7.38281 8.33984 7.21094 8.24609C7.03516 8.15234 6.48047 7.95703 5.82422 7.32422C5.3125 6.83203 4.96484 6.22656 4.86719 6.03906C4.76562 5.85156 4.85547 5.75391 4.94141 5.66406C5.01953 5.57812 5.11328 5.44531 5.19922 5.33594C5.28516 5.23047 5.3125 5.14844 5.37109 5.02734C5.42969 4.90234 5.40234 4.79297 5.35938 4.70312C5.3125 4.60938 4.96875 3.69531 4.82812 3.32422C4.6875 2.96484 4.54297 3.01172 4.4375 3.00781C4.33984 3 4.22266 3 4.10938 3Z" fill="#FECC16"/>
</svg>
